<svg xmlns="http://www.w3.org/2000/svg" xmlns:xlink="http://www.w3.org/1999/xlink" width="500" zoomAndPan="magnify" viewBox="0 0 375 374.999991" height="500" preserveAspectRatio="xMidYMid meet" version="1.0"><defs><g/><clipPath id="65f73b3451"><path d="M 68.746094 57.59375 L 298.667969 57.59375 L 298.667969 287.515625 L 68.746094 287.515625 Z M 68.746094 57.59375 " clip-rule="nonzero"/></clipPath><clipPath id="8b405956f3"><path d="M 183.707031 57.59375 C 120.214844 57.59375 68.746094 109.0625 68.746094 172.554688 C 68.746094 236.046875 120.214844 287.515625 183.707031 287.515625 C 247.199219 287.515625 298.667969 236.046875 298.667969 172.554688 C 298.667969 109.0625 247.199219 57.59375 183.707031 57.59375 Z M 183.707031 57.59375 " clip-rule="nonzero"/></clipPath></defs><g clip-path="url(#65f73b3451)"><g clip-path="url(#8b405956f3)"><path fill="#e1e1e1" d="M 68.746094 57.59375 L 298.667969 57.59375 L 298.667969 287.515625 L 68.746094 287.515625 Z M 68.746094 57.59375 " fill-opacity="1" fill-rule="nonzero"/></g></g><g fill="#016494" fill-opacity="1"><g transform="translate(140.612365, 89.597466)"><g><path d="M 0.671875 -0.3125 L -2.359375 -6.75 L -1.1875 -7.296875 L 1.359375 -1.890625 L 4.21875 -3.25 L 4.625 -2.171875 Z M 0.671875 -0.3125 "/></g></g></g><g fill="#016494" fill-opacity="1"><g transform="translate(151.985668, 84.754611)"><g><path d="M 3.25 -7.3125 L 0.09375 -6.3125 L 0.65625 -4.578125 L 3.65625 -5.515625 L 3.984375 -4.4375 L 0.984375 -3.5 L 1.5625 -1.6875 L 4.828125 -2.71875 L 5.09375 -1.609375 L 0.703125 -0.21875 L -1.4375 -7 L 2.921875 -8.390625 Z M 3.25 -7.3125 "/></g></g></g><g fill="#016494" fill-opacity="1"><g transform="translate(164.388593, 81.346699)"><g><path d="M 4.609375 -8 L 4.65625 -6.859375 L 2.484375 -6.484375 L 3.484375 -0.59375 L 2.1875 -0.375 L 1.1875 -6.265625 L -1.0625 -5.875 L -1.265625 -6.984375 Z M 4.609375 -8 "/></g></g></g><g fill="#016494" fill-opacity="1"><g transform="translate(177.211427, 79.635815)"><g><path d="M -0.09375 0 L 2.75 -7.1875 L 3.84375 -7.21875 L 6.953125 -0.171875 L 5.625 -0.140625 L 4.9375 -1.75 L 1.84375 -1.671875 L 1.21875 -0.03125 Z M 2.265625 -2.78125 L 4.5 -2.84375 L 3.328125 -5.609375 Z M 2.265625 -2.78125 "/></g></g></g><g fill="#016494" fill-opacity="1"><g transform="translate(191.237499, 79.75313)"><g><path d="M 0.6875 0.09375 L 1.921875 -6.921875 L 3.046875 -6.765625 L 4.875 -0.96875 L 8.203125 -6.0625 L 9.3125 -5.90625 L 8.5625 1.171875 L 7.328125 1 L 7.78125 -3.390625 L 5.09375 0.703125 L 4.125 0.5625 L 2.65625 -4.0625 L 1.875 0.25 Z M 0.6875 0.09375 "/></g></g></g><g fill="#016494" fill-opacity="1"><g transform="translate(207.451561, 82.648563)"><g><path d="M 7.3125 -5.171875 L 8.5625 -4.796875 L 7.4375 -1.171875 C 7.226562 -0.492188 6.9375 0.0507812 6.5625 0.46875 C 6.195312 0.882812 5.753906 1.15625 5.234375 1.28125 C 4.710938 1.414062 4.148438 1.390625 3.546875 1.203125 C 2.585938 0.898438 1.9375 0.429688 1.59375 -0.203125 C 1.257812 -0.847656 1.25 -1.671875 1.5625 -2.671875 L 2.78125 -6.59375 L 4.015625 -6.203125 L 2.828125 -2.375 C 2.617188 -1.695312 2.601562 -1.160156 2.78125 -0.765625 C 2.96875 -0.367188 3.332031 -0.0859375 3.875 0.078125 C 4.4375 0.253906 4.910156 0.207031 5.296875 -0.0625 C 5.691406 -0.34375 6 -0.859375 6.21875 -1.609375 Z M 7.3125 -5.171875 "/></g></g></g><g fill="#016494" fill-opacity="1"><g transform="translate(221.272417, 87.601417)"><g/></g></g><g fill="#016494" fill-opacity="1"><g transform="translate(229.934793, 91.951857)"><g><path d="M 8.734375 -2.984375 L 8.015625 -2.078125 L 6.140625 -3.234375 L 3.015625 1.84375 L 1.890625 1.15625 L 5.015625 -3.921875 L 3.078125 -5.109375 L 3.671875 -6.09375 Z M 8.734375 -2.984375 "/></g></g></g><g fill="#016494" fill-opacity="1"><g transform="translate(240.699719, 99.140216)"><g><path d="M 5.671875 3.09375 L 5.28125 4.0625 C 5.101562 4.050781 4.921875 4.007812 4.734375 3.9375 C 4.554688 3.863281 4.378906 3.753906 4.203125 3.609375 C 3.628906 3.128906 3.390625 2.492188 3.484375 1.703125 L 3.703125 -0.15625 C 3.734375 -0.351562 3.722656 -0.515625 3.671875 -0.640625 C 3.628906 -0.765625 3.554688 -0.867188 3.453125 -0.953125 L 3.421875 -0.984375 L 1.546875 1.28125 L 0.5625 0.46875 L 5.09375 -5 L 6.796875 -3.59375 C 7.492188 -3.019531 7.898438 -2.441406 8.015625 -1.859375 C 8.128906 -1.273438 7.984375 -0.734375 7.578125 -0.234375 C 7.316406 0.0664062 7.03125 0.269531 6.71875 0.375 C 6.40625 0.488281 6.078125 0.515625 5.734375 0.453125 C 5.398438 0.390625 5.078125 0.253906 4.765625 0.046875 C 4.835938 0.265625 4.863281 0.519531 4.84375 0.8125 L 4.734375 1.8125 C 4.710938 2.070312 4.722656 2.273438 4.765625 2.421875 C 4.816406 2.566406 4.921875 2.703125 5.078125 2.828125 C 5.253906 2.972656 5.453125 3.0625 5.671875 3.09375 Z M 6.0625 -2.828125 L 5.40625 -3.375 L 4.0625 -1.765625 L 4.671875 -1.265625 C 5.085938 -0.921875 5.445312 -0.726562 5.75 -0.6875 C 6.0625 -0.65625 6.335938 -0.78125 6.578125 -1.0625 C 7.015625 -1.59375 6.84375 -2.179688 6.0625 -2.828125 Z M 6.0625 -2.828125 "/></g></g></g><g fill="#016494" fill-opacity="1"><g transform="translate(250.738087, 108.103547)"><g><path d="M -0.0625 -0.0625 L 7.25 -2.5625 L 7.984375 -1.75 L 4.65625 5.171875 L 3.765625 4.1875 L 4.53125 2.609375 L 2.46875 0.3125 L 0.8125 0.90625 Z M 3.578125 -0.078125 L 5.0625 1.578125 L 6.421875 -1.109375 Z M 3.578125 -0.078125 "/></g></g></g><g fill="#016494" fill-opacity="1"><g transform="translate(259.737245, 118.913921)"><g><path d="M 8.828125 0.4375 L 9.546875 1.515625 L 2.1875 3.296875 L 1.1875 1.78125 L 5.90625 -3.953125 L 6.6875 -2.796875 L 2.640625 2 Z M 8.828125 0.4375 "/></g></g></g><g fill="#016494" fill-opacity="1"><g transform="translate(266.759738, 130.425471)"><g><path d="M 7.6875 2.203125 L 6.25 -0.796875 L 4.609375 0 L 5.96875 2.84375 L 4.953125 3.328125 L 3.59375 0.484375 L 1.875 1.3125 L 3.359375 4.40625 L 2.3125 4.8125 L 0.3125 0.65625 L 6.71875 -2.421875 L 8.703125 1.71875 Z M 7.6875 2.203125 "/></g></g></g><g fill="#016494" fill-opacity="1"><g transform="translate(271.864812, 142.241853)"><g><path d="M 0.21875 0.703125 L 6.984375 -1.484375 L 7.390625 -0.25 L 1.703125 1.59375 L 2.671875 4.609375 L 1.578125 4.859375 Z M 0.21875 0.703125 "/></g></g></g><g fill="#016494" fill-opacity="1"><g transform="translate(275.226791, 154.134303)"><g><path d="M 0.421875 2.90625 C 0.273438 2.082031 0.34375 1.410156 0.625 0.890625 C 0.914062 0.367188 1.410156 0.0078125 2.109375 -0.1875 L 2.515625 0.984375 C 1.691406 1.253906 1.363281 1.851562 1.53125 2.78125 C 1.601562 3.175781 1.738281 3.472656 1.9375 3.671875 C 2.132812 3.867188 2.378906 3.941406 2.671875 3.890625 C 2.941406 3.835938 3.117188 3.6875 3.203125 3.4375 C 3.296875 3.1875 3.359375 2.804688 3.390625 2.296875 C 3.421875 1.816406 3.484375 1.398438 3.578125 1.046875 C 3.671875 0.691406 3.832031 0.398438 4.0625 0.171875 C 4.300781 -0.046875 4.632812 -0.195312 5.0625 -0.28125 C 5.476562 -0.351562 5.863281 -0.304688 6.21875 -0.140625 C 6.582031 0.015625 6.890625 0.257812 7.140625 0.59375 C 7.398438 0.9375 7.578125 1.351562 7.671875 1.84375 C 7.785156 2.5 7.707031 3.0625 7.4375 3.53125 C 7.164062 4.007812 6.742188 4.332031 6.171875 4.5 L 5.765625 3.4375 C 6.421875 3.175781 6.6875 2.691406 6.5625 1.984375 C 6.5 1.640625 6.359375 1.375 6.140625 1.1875 C 5.921875 1.007812 5.671875 0.945312 5.390625 1 C 5.097656 1.050781 4.894531 1.191406 4.78125 1.421875 C 4.664062 1.660156 4.59375 2.050781 4.5625 2.59375 C 4.539062 3.0625 4.488281 3.472656 4.40625 3.828125 C 4.332031 4.179688 4.179688 4.46875 3.953125 4.6875 C 3.734375 4.914062 3.40625 5.066406 2.96875 5.140625 C 2.570312 5.210938 2.195312 5.164062 1.84375 5 C 1.5 4.84375 1.195312 4.582031 0.9375 4.21875 C 0.6875 3.863281 0.515625 3.425781 0.421875 2.90625 Z M 0.421875 2.90625 "/></g></g></g><path stroke-linecap="butt" transform="matrix(0.75, 0, 0, 0.75, 51.035502, 50.414997)" fill="none" stroke-linejoin="miter" d="M 251.723514 207.378976 L 256.009973 208.326893 L 241.176638 255.139396 L 107.405796 255.139396 L 107.405796 250.378979 L 113.937047 250.378979 C 121.244339 250.378979 126.437047 248.040437 129.520381 243.368562 C 131.332881 240.602937 132.244339 234.300853 132.244339 224.457102 L 132.244339 112.936262 C 132.244339 102.227928 131.088089 95.493552 128.770381 92.727927 C 125.369339 89.003969 120.42663 87.144593 113.937047 87.144593 L 107.405796 87.144593 L 107.405796 82.384176 L 185.588093 82.384176 L 185.588093 87.144593 C 176.468301 87.056052 170.051634 87.915427 166.332883 89.733135 C 162.614133 91.49876 160.0933 93.748761 158.780799 96.467511 C 157.463091 99.191469 156.806841 105.696678 156.806841 115.993554 L 156.806841 224.457102 C 156.806841 231.53002 157.442258 236.363353 158.713091 238.946687 C 159.754758 240.71752 161.3433 242.03002 163.473508 242.894604 C 165.603717 243.753979 172.228717 244.18627 183.343301 244.18627 L 195.931844 244.18627 C 209.218303 244.18627 218.54122 243.212312 223.895387 241.259187 C 229.249554 239.264395 234.124554 235.816478 238.525596 230.920645 C 242.968305 225.972728 247.369347 218.128977 251.723514 207.378976 Z M 251.723514 207.378976 " stroke="#fffcf5" stroke-width="20.902725" stroke-opacity="1" stroke-miterlimit="4"/><g fill="#016494" fill-opacity="1"><g transform="translate(126.691747, 268.664982)"><g><path d="M 113.109375 -62.703125 L 116.34375 -62 L 105.234375 -26.875 L 4.890625 -26.875 L 4.890625 -30.453125 L 9.796875 -30.453125 C 15.285156 -30.453125 19.1875 -32.207031 21.5 -35.71875 C 22.851562 -37.78125 23.53125 -42.515625 23.53125 -49.921875 L 23.53125 -133.546875 C 23.53125 -141.585938 22.65625 -146.640625 20.90625 -148.703125 C 18.351562 -151.492188 14.648438 -152.890625 9.796875 -152.890625 L 4.890625 -152.890625 L 4.890625 -156.46875 L 63.546875 -156.46875 L 63.546875 -152.890625 C 56.691406 -152.972656 51.867188 -152.335938 49.078125 -150.984375 C 46.296875 -149.628906 44.40625 -147.9375 43.40625 -145.90625 C 42.414062 -143.875 41.921875 -138.992188 41.921875 -131.265625 L 41.921875 -49.921875 C 41.921875 -44.585938 42.398438 -40.96875 43.359375 -39.0625 C 44.148438 -37.707031 45.34375 -36.710938 46.9375 -36.078125 C 48.53125 -35.441406 53.507812 -35.125 61.875 -35.125 L 71.3125 -35.125 C 81.257812 -35.125 88.242188 -35.859375 92.265625 -37.328125 C 96.285156 -38.796875 99.945312 -41.378906 103.25 -45.078125 C 106.5625 -48.785156 109.847656 -54.660156 113.109375 -62.703125 Z M 113.109375 -62.703125 "/></g></g></g><path stroke-linecap="butt" transform="matrix(0.75, 0, 0, 0.75, 104.953526, 79.828471)" fill="none" stroke-linejoin="miter" d="M 176.17656 76.853711 L 177.942185 114.463088 L 173.530726 114.463088 C 172.650518 107.786004 171.473434 103.062046 170.004684 100.291212 C 167.525517 95.67142 164.270309 92.291212 160.239059 90.145378 C 156.207808 87.963086 150.895308 86.869336 144.301558 86.869336 L 121.749473 86.869336 L 121.749473 209.082886 C 121.749473 218.911012 122.775515 225.062054 124.832806 227.541221 C 127.900515 230.775596 132.520307 232.390179 138.692182 232.390179 L 144.301558 232.390179 L 144.301558 236.801638 L 76.515095 236.801638 L 76.515095 232.390179 L 82.12447 232.390179 C 88.884887 232.390179 93.692179 230.374554 96.551554 226.343304 C 98.228638 223.780804 99.06718 218.030803 99.06718 209.082886 L 99.06718 86.869336 L 79.921345 86.869336 C 72.442178 86.869336 67.129678 87.416211 63.978636 88.509961 C 59.822385 90.062045 56.296343 92.963087 53.395302 97.20267 C 50.499468 101.400587 48.754676 107.155796 48.171343 114.463088 L 43.759884 114.463088 L 45.713009 76.853711 Z M 176.17656 76.853711 " stroke="#fffcf5" stroke-width="19.35285" stroke-opacity="1" stroke-miterlimit="4"/><g fill="#016494" fill-opacity="1"><g transform="translate(130.922275, 282.328457)"><g><path d="M 106.15625 -144.859375 L 107.484375 -116.65625 L 104.171875 -116.65625 C 103.503906 -121.675781 102.617188 -125.21875 101.515625 -127.28125 C 99.671875 -130.738281 97.238281 -133.28125 94.21875 -134.90625 C 91.195312 -136.53125 87.210938 -137.34375 82.265625 -137.34375 L 65.359375 -137.34375 L 65.359375 -45.671875 C 65.359375 -38.296875 66.128906 -33.6875 67.671875 -31.84375 C 69.960938 -29.414062 73.425781 -28.203125 78.0625 -28.203125 L 82.265625 -28.203125 L 82.265625 -24.875 L 31.40625 -24.875 L 31.40625 -28.203125 L 35.609375 -28.203125 C 40.691406 -28.203125 44.300781 -29.710938 46.4375 -32.734375 C 47.695312 -34.648438 48.328125 -38.960938 48.328125 -45.671875 L 48.328125 -137.34375 L 33.953125 -137.34375 C 28.347656 -137.34375 24.363281 -136.9375 22 -136.125 C 18.90625 -134.945312 16.269531 -132.769531 14.09375 -129.59375 C 11.925781 -126.425781 10.617188 -122.113281 10.171875 -116.65625 L 6.859375 -116.65625 L 8.296875 -144.859375 Z M 106.15625 -144.859375 "/></g></g></g></svg>